<svg id="visual" viewBox="0 0 900 600" width="900" height="600" xmlns="http://www.w3.org/2000/svg" xmlns:xlink="http://www.w3.org/1999/xlink" version="1.1"><path d="M0 181L13.7 182C27.3 183 54.7 185 82 179C109.3 173 136.7 159 163.8 156C191 153 218 161 245.2 165C272.3 169 299.7 169 327 170C354.3 171 381.7 173 409 161C436.3 149 463.7 123 491 108C518.3 93 545.7 89 573 87C600.3 85 627.7 85 654.8 100C682 115 709 145 736.2 166C763.3 187 790.7 199 818 216C845.3 233 872.7 255 886.3 266L900 277L900 0L886.3 0C872.7 0 845.3 0 818 0C790.7 0 763.3 0 736.2 0C709 0 682 0 654.8 0C627.7 0 600.3 0 573 0C545.7 0 518.3 0 491 0C463.7 0 436.3 0 409 0C381.7 0 354.3 0 327 0C299.7 0 272.3 0 245.2 0C218 0 191 0 163.8 0C136.7 0 109.3 0 82 0C54.7 0 27.3 0 13.7 0L0 0Z" fill="#8c45ba"></path><path d="M0 283L13.7 273C27.3 263 54.7 243 82 233C109.3 223 136.7 223 163.8 224C191 225 218 227 245.2 232C272.3 237 299.7 245 327 243C354.3 241 381.7 229 409 213C436.3 197 463.7 177 491 171C518.3 165 545.7 173 573 167C600.3 161 627.7 141 654.8 156C682 171 709 221 736.2 243C763.3 265 790.7 259 818 267C845.3 275 872.7 297 886.3 308L900 319L900 275L886.3 264C872.7 253 845.3 231 818 214C790.7 197 763.3 185 736.2 164C709 143 682 113 654.8 98C627.7 83 600.3 83 573 85C545.7 87 518.3 91 491 106C463.7 121 436.3 147 409 159C381.7 171 354.3 169 327 168C299.7 167 272.3 167 245.2 163C218 159 191 151 163.8 154C136.7 157 109.3 171 82 177C54.7 183 27.3 181 13.7 180L0 179Z" fill="#7a2eab"></path><path d="M0 325L13.7 315C27.3 305 54.7 285 82 280C109.3 275 136.7 285 163.8 299C191 313 218 331 245.2 335C272.3 339 299.7 329 327 320C354.3 311 381.7 303 409 295C436.3 287 463.7 279 491 275C518.3 271 545.7 271 573 260C600.3 249 627.7 227 654.8 245C682 263 709 321 736.2 347C763.3 373 790.7 367 818 364C845.3 361 872.7 361 886.3 361L900 361L900 317L886.3 306C872.7 295 845.3 273 818 265C790.7 257 763.3 263 736.2 241C709 219 682 169 654.8 154C627.7 139 600.3 159 573 165C545.7 171 518.3 163 491 169C463.7 175 436.3 195 409 211C381.7 227 354.3 239 327 241C299.7 243 272.3 235 245.2 230C218 225 191 223 163.8 222C136.7 221 109.3 221 82 231C54.7 241 27.3 261 13.7 271L0 281Z" fill="#67109d"></path><path d="M0 481L13.7 474C27.3 467 54.7 453 82 447C109.3 441 136.7 443 163.8 447C191 451 218 457 245.2 466C272.3 475 299.7 487 327 482C354.3 477 381.7 455 409 455C436.3 455 463.7 477 491 493C518.3 509 545.7 519 573 514C600.3 509 627.7 489 654.8 487C682 485 709 501 736.2 511C763.3 521 790.7 525 818 517C845.3 509 872.7 489 886.3 479L900 469L900 359L886.3 359C872.7 359 845.3 359 818 362C790.7 365 763.3 371 736.2 345C709 319 682 261 654.8 243C627.7 225 600.3 247 573 258C545.7 269 518.3 269 491 273C463.7 277 436.3 285 409 293C381.7 301 354.3 309 327 318C299.7 327 272.3 337 245.2 333C218 329 191 311 163.8 297C136.7 283 109.3 273 82 278C54.7 283 27.3 303 13.7 313L0 323Z" fill="#581188"></path><path d="M0 601L13.7 601C27.3 601 54.7 601 82 601C109.3 601 136.7 601 163.8 601C191 601 218 601 245.2 601C272.3 601 299.7 601 327 601C354.3 601 381.7 601 409 601C436.3 601 463.7 601 491 601C518.3 601 545.7 601 573 601C600.3 601 627.7 601 654.8 601C682 601 709 601 736.2 601C763.3 601 790.7 601 818 601C845.3 601 872.7 601 886.3 601L900 601L900 467L886.3 477C872.7 487 845.3 507 818 515C790.7 523 763.3 519 736.2 509C709 499 682 483 654.8 485C627.7 487 600.3 507 573 512C545.7 517 518.3 507 491 491C463.7 475 436.3 453 409 453C381.7 453 354.3 475 327 480C299.7 485 272.3 473 245.2 464C218 455 191 449 163.8 445C136.7 441 109.3 439 82 445C54.7 451 27.3 465 13.7 472L0 479Z" fill="#4a1173"></path></svg>